HIERARCHY
ROOT Hips
{
	OFFSET 0.00000 0.00000 0.00000
	CHANNELS 6 Xposition Yposition Zposition Zrotation Yrotation Xrotation 
	JOINT LHipJoint
	{
		OFFSET 0 0 0
		CHANNELS 3 Zrotation Yrotation Xrotation
		JOINT LeftUpLeg
		{
			OFFSET 1.36443 -1.53315 0.80540
			CHANNELS 3 Zrotation Yrotation Xrotation
			JOINT LeftLeg
			{
				OFFSET 2.27494 -6.25036 0.00000
				CHANNELS 3 Zrotation Yrotation Xrotation
				JOINT LeftFoot
				{
					OFFSET 2.17461 -5.97470 0.00000
					CHANNELS 3 Zrotation Yrotation Xrotation
					JOINT LeftToeBase
					{
						OFFSET 0.22144 -0.60841 2.08966
						CHANNELS 3 Zrotation Yrotation Xrotation
						End Site
						{
							OFFSET 0.00000 -0.00000 1.09206
						}
					}
				}
			}
		}
	}
	JOINT RHipJoint
	{
		OFFSET 0 0 0
		CHANNELS 3 Zrotation Yrotation Xrotation
		JOINT RightUpLeg
		{
			OFFSET -1.29957 -1.53315 0.80539
			CHANNELS 3 Zrotation Yrotation Xrotation
			JOINT RightLeg
			{
				OFFSET -2.23917 -6.15209 0.00000
				CHANNELS 3 Zrotation Yrotation Xrotation
				JOINT RightFoot
				{
					OFFSET -2.18029 -5.99030 0.00000
					CHANNELS 3 Zrotation Yrotation Xrotation
					JOINT RightToeBase
					{
						OFFSET -0.22354 -0.61416 1.89975
						CHANNELS 3 Zrotation Yrotation Xrotation
						End Site
						{
							OFFSET -0.00000 -0.00000 1.00221
						}
					}
				}
			}
		}
	}
	JOINT LowerBack
	{
		OFFSET 0 0 0
		CHANNELS 3 Zrotation Yrotation Xrotation
		JOINT Spine
		{
			OFFSET -0.04725 2.10352 -0.01215
			CHANNELS 3 Zrotation Yrotation Xrotation
			JOINT Spine1
			{
				OFFSET 0.04471 2.09612 -0.07192
				CHANNELS 3 Zrotation Yrotation Xrotation
				JOINT Neck
				{
					OFFSET 0 0 0
					CHANNELS 3 Zrotation Yrotation Xrotation
					JOINT Neck1
					{
						OFFSET -0.01586 1.38087 0.11506
						CHANNELS 3 Zrotation Yrotation Xrotation
						JOINT Head
						{
							OFFSET -0.01055 1.38869 -0.12115
							CHANNELS 3 Zrotation Yrotation Xrotation
							End Site
							{
								OFFSET -0.00310 1.39537 -0.05348
							}
						}
					}
				}
				JOINT LeftShoulder
				{
					OFFSET 0 0 0
					CHANNELS 3 Zrotation Yrotation Xrotation
					JOINT LeftArm
					{
						OFFSET 2.71932 0.62535 0.37316
						CHANNELS 3 Zrotation Yrotation Xrotation
						JOINT LeftForeArm
						{
							OFFSET 4.47366 -0.00000 0.00000
							CHANNELS 3 Zrotation Yrotation Xrotation
							JOINT LeftHand
							{
								OFFSET 3.19948 -0.00000 -0.00000
								CHANNELS 3 Zrotation Yrotation Xrotation
								JOINT LeftFingerBase
								{
									OFFSET 0 0 0
									CHANNELS 3 Zrotation Yrotation Xrotation
									JOINT LeftHandIndex1
									{
										OFFSET 0.49267 -0.00000 -0.00000
										CHANNELS 3 Zrotation Yrotation Xrotation
										End Site
										{
											OFFSET 0.39720 -0.00000 -0.00000
										}
									}
								}
								JOINT LThumb
								{
									OFFSET 0 0 0
									CHANNELS 3 Zrotation Yrotation Xrotation
									End Site
									{
										OFFSET 0.40327 -0.00000 0.40327
									}
								}
							}
						}
					}
				}
				JOINT RightShoulder
				{
					OFFSET 0 0 0
					CHANNELS 3 Zrotation Yrotation Xrotation
					JOINT RightArm
					{
						OFFSET -2.97334 0.70851 0.47631
						CHANNELS 3 Zrotation Yrotation Xrotation
						JOINT RightForeArm
						{
							OFFSET -4.32690 -0.00000 -0.00000
							CHANNELS 3 Zrotation Yrotation Xrotation
							JOINT RightHand
							{
								OFFSET -3.18960 -0.00000 0.00000
								CHANNELS 3 Zrotation Yrotation Xrotation
								JOINT RightFingerBase
								{
									OFFSET 0 0 0
									CHANNELS 3 Zrotation Yrotation Xrotation
									JOINT RightHandIndex1
									{
										OFFSET -0.46450 -0.00000 -0.00000
										CHANNELS 3 Zrotation Yrotation Xrotation
										End Site
										{
											OFFSET -0.37449 -0.00000 -0.00000
										}
									}
								}
								JOINT RThumb
								{
									OFFSET 0 0 0
									CHANNELS 3 Zrotation Yrotation Xrotation
									End Site
									{
										OFFSET -0.38021 -0.00000 0.38021
									}
								}
							}
						}
					}
				}
			}
		}
	}
}
MOTION
Frames: 7
Frame Time: .0083333
6.6825 15.1386 -16.8198 0 0 0 0 0 0 -21 0 0 0 0 0 0 0 0 0 0 0 0 0 0 21 0 0 0 0 0 0 0 0 0 0 0 0 0 0 0 0 0 0 0 0 0 0 -16 0 0 21 0 0 11 0 0 0 -8 0 0 0 0 0 0 0 0 0 0 0 0 0 0 0 0 0 0 0 0 8 0 0 0 0 0 0 0 0 0 0 0 0 0 0 0 0 0
6.6825 15.1386 -16.8198 5.4722 1.1639 4.0077 0.0000 0.0000 0.0000 -20.3920 -5.5690 -4.1567 1.7610 8.3494 23.7805 -0.2645 19.5162 -25.4243 2.3257 -9.5139 -27.4166 0.0000 0.0000 0.0000 14.8112 22.9698 5.0054 -2.1076 -9.0868 26.0671 -1.4084 -29.1284 -46.4835 -0.5414 -4.7141 13.0948 -6.5798 -0.7685 -4.5150 0.0212 -0.9819 -8.0621 3.7076 -0.1044 -5.7973 -4.3800 -3.8310 -17.8399 7.0756 -3.9398 -12.0658 2.8764 -1.7306 -0.6527 0.0000 -0.0000 0.0000 33.9373 -27.8611 -61.1004 125.2551 -54.7387 -89.9924 -0.0000 0.0000 -10.6950 53.7238 -10.0623 -13.3905 -7.1250 0.0000 -0.0000 17.9412 13.8283 -13.8428 0.0000 -0.0000 0.0000 -38.8365 22.8241 -62.7705 -108.8102 58.6199 -76.2146 0.0000 0.0000 9.1622 -41.1439 -33.7584 25.8971 7.1250 -0.0000 -0.0000 -14.0386 -71.1275 8.7972
6.6834 15.1400 -16.8186 5.5078 1.1801 3.9888 0.0000 0.0000 0.0000 -20.4241 -5.5193 -4.1228 1.7544 8.3347 23.7353 -0.2371 19.3639 -25.4301 2.2680 -9.4034 -27.0655 0.0000 0.0000 0.0000 14.7812 22.9456 5.0218 -2.1112 -9.0940 26.0898 -1.3709 -29.1861 -46.4064 -0.5407 -4.7111 13.0863 -6.6273 -0.8098 -4.5285 0.0399 -1.0362 -8.0942 3.7540 -0.1266 -5.8182 -4.5813 -3.8796 -18.0284 7.1867 -3.9743 -11.7245 2.9439 -1.7334 -0.4980 -0.0000 0.0000 0.0000 33.8907 -27.8665 -61.0098 125.2476 -54.7412 -89.9863 -0.0000 0.0000 -10.6234 53.8036 -9.8113 -13.1082 -7.1250 0.0000 -0.0000 18.0594 14.1872 -13.7987 -0.0000 0.0000 0.0000 -38.8426 23.0009 -62.7732 -108.7940 58.6224 -76.2008 0.0000 0.0000 9.2580 -41.2397 -33.3574 25.7359 7.1250 -0.0000 -0.0000 -14.2664 -70.7163 8.8124
6.6872 15.1415 -16.8201 5.5222 1.1072 3.9968 0.0000 0.0000 0.0000 -20.4822 -5.6658 -4.0567 1.7535 8.3326 23.7291 -0.2547 19.5181 -25.5121 2.2177 -9.3055 -26.7557 0.0000 0.0000 0.0000 14.6567 22.8030 4.8928 -2.1099 -9.0914 26.0818 -1.2837 -29.1631 -46.0542 -0.5089 -4.5729 12.6942 -6.5877 -0.7890 -4.5231 0.0377 -1.0117 -8.1509 3.7299 -0.1132 -5.8853 -5.1204 -3.9752 -18.1793 7.5877 -3.9989 -11.4627 3.1786 -1.7168 -0.3588 -0.0000 -0.0000 0.0000 33.8652 -27.9094 -60.8447 125.2851 -54.7287 -90.0169 -0.0000 0.0000 -10.4631 53.8608 -10.0858 -13.4854 -7.1250 0.0000 -0.0000 18.0183 13.7478 -13.9414 -0.0000 -0.0000 0.0000 -38.8662 23.0992 -62.7853 -108.6853 58.6388 -76.1080 0.0000 0.0000 9.3677 -41.2878 -32.6545 25.3527 7.1250 -0.0000 -0.0000 -14.4263 -69.9536 8.6687
6.6898 15.1408 -16.8208 5.5351 1.0297 4.0100 0.0000 0.0000 0.0000 -20.5385 -5.7454 -4.0264 1.7540 8.3337 23.7323 -0.3153 19.8250 -25.4580 2.2827 -9.4317 -27.1554 0.0000 0.0000 0.0000 14.5596 22.7083 4.7924 -2.1085 -9.0885 26.0726 -1.2792 -29.0353 -45.8965 -0.4863 -4.4717 12.4076 -6.5578 -0.7527 -4.5415 0.0240 -0.9639 -8.1834 3.6987 -0.0899 -5.9155 -5.8029 -4.0815 -18.2640 8.1073 -4.0017 -11.3903 3.4900 -1.6851 -0.2874 -0.0000 -0.0000 0.0000 33.9197 -27.9470 -60.7960 125.2806 -54.7302 -90.0132 -0.0000 0.0000 -10.4300 53.5005 -11.8067 -15.4573 -7.1250 0.0000 -0.0000 17.3312 11.2595 -14.3008 -0.0000 -0.0000 0.0000 -38.8375 23.1456 -62.7722 -108.5983 58.6518 -76.0337 0.0000 0.0000 9.2782 -40.8385 -32.4171 24.8611 7.1250 -0.0000 -0.0000 -13.6617 -69.5472 8.0795
6.6901 15.1412 -16.8201 5.4984 1.0082 3.9993 0.0000 0.0000 0.0000 -20.5145 -5.7738 -3.9987 1.7563 8.3389 23.7484 -0.3328 19.9372 -25.4799 2.3359 -9.5333 -27.4783 0.0000 0.0000 0.0000 14.6232 22.7788 4.8374 -2.1056 -9.0826 26.0540 -1.2953 -29.0437 -45.9668 -0.4963 -4.5164 12.5343 -6.5124 -0.7283 -4.5653 0.0073 -0.9307 -8.1888 3.6552 -0.0767 -5.9116 -5.9744 -4.0921 -18.2186 8.2184 -3.9806 -11.4600 3.5651 -1.6682 -0.3122 -0.0000 -0.0000 0.0000 34.0588 -28.0244 -60.9172 125.2070 -54.7547 -89.9532 -0.0000 0.0000 -10.5256 53.4626 -12.2111 -15.9317 -7.1250 0.0000 -0.0000 17.1999 10.6670 -14.4008 -0.0000 -0.0000 0.0000 -38.7660 23.0718 -62.7422 -108.5991 58.6517 -76.0343 0.0000 0.0000 8.9111 -40.2589 -32.7326 24.6029 7.1250 -0.0000 -0.0000 -12.6139 -69.7126 7.4992
6.6895 15.1396 -16.8197 5.4275 0.9762 3.9541 0.0000 0.0000 0.0000 -20.4345 -5.7283 -3.9725 1.7581 8.3429 23.7605 -0.3297 19.9193 -25.4796 2.3468 -9.5539 -27.5438 0.0000 0.0000 0.0000 14.7517 22.8876 4.9282 -2.1029 -9.0772 26.0372 -1.2167 -29.2729 -45.9227 -0.4978 -4.5232 12.5535 -6.4352 -0.6962 -4.5342 -0.0087 -0.8922 -8.2133 3.5956 -0.0605 -5.9598 -5.9381 -4.0685 -18.1564 8.2144 -3.9597 -11.4415 3.5584 -1.6602 -0.3183 0.0000 0.0000 0.0000 34.1970 -28.1391 -61.0338 125.1199 -54.7836 -89.8820 -0.0000 0.0000 -10.6273 54.0672 -10.4759 -14.0834 -7.1250 0.0000 -0.0000 18.0356 13.0809 -14.2246 0.0000 0.0000 0.0000 -38.6760 22.9261 -62.6894 -108.7012 58.6364 -76.1216 0.0000 0.0000 8.6430 -40.3726 -33.1053 24.9095 7.1250 -0.0000 -0.0000 -12.7492 -70.1606 7.7077
